# xmcd CD database file generated by OrangeCD 6.5
#
# Track frame offsets:
#	150
#	13405
#	26947
#	39270
#	53312
#	66442
#	80892
#	94167
#	106177
#	118367
#	131767
#	142700
#	149965
#	157910
#	165172
#	174510
#	178640
#	186052
#	193765
#	199622
#
# Disc length: 2800 seconds
#
# Revision: 5
# Processed by: cddbd v1.5.2PL0 Copyright (c) Steve Scherf et al.
# Submitted via: OrangeCD 6.5
#
DISCID=1b0aee14
DTITLE=Various Artist - Legends Of Bluegrass (Gold Collection)
DYEAR=2001
DGENRE=Bluegrass
TTITLE0=Hank Snow - My San Antonio Mamma
TTITLE1=Hank Snow - The Hobo's Last Ride
TTITLE2=Hank Snow - Lonesome Blue Yodel
TTITLE3=Hank Snow - The Blue Velvet Band
TTITLE4=Hank Snow - We met in the Hills of old Wyoming
TTITLE5=Hank Snow - Someday You'll Care
TTITLE6=Hank Snow - The Texas Cowboy
TTITLE7=Hank Snow - I'll Ride back to Lonesome Valley
TTITLE8=Hank Snow - Wandering on
TTITLE9=Hank Snow - We'll never say Goodbye
TTITLE10=Merle Travis - Nine Pound Hammer
TTITLE11=Merle Travis - Cannonball Rag
TTITLE12=Merle Travis - Pigmeat Strut
TTITLE13=Merle Travis - I'm gonna ride that Gospel Train
TTITLE14=Merle Travis - Our Little Home in the Country
TTITLE15=Merle Travis - Osage Stomp
TTITLE16=Merle Travis - Kansas City Blues
TTITLE17=Merle Travis - Freight Train Blues
TTITLE18=Merle Travis - Sugar Gourd full of Whiskey
TTITLE19=Merle Travis - Boogie Woogie Cowboy
EXTD=
EXTT0=
EXTT1=
EXTT2=
EXTT3=
EXTT4=
EXTT5=
EXTT6=
EXTT7=
EXTT8=
EXTT9=
EXTT10=
EXTT11=
EXTT12=
EXTT13=
EXTT14=
EXTT15=
EXTT16=
EXTT17=
EXTT18=
EXTT19=
PLAYORDER=
